<?xml version="1.0" encoding="UTF-8"?>
<svg id="Layer_1" data-name="Layer 1" xmlns="http://www.w3.org/2000/svg" viewBox="0 0 608.8 676.8">
  <defs>
    <style>
      .cls-1 {
        fill: #9a8080;
      }

      .cls-1, .cls-2, .cls-3, .cls-4, .cls-5 {
        stroke-width: 0px;
      }

      .cls-2 {
        fill: #c90000;
      }

      .cls-3 {
        fill: #fff;
      }

      .cls-4 {
        fill: #f69c6d;
      }

      .cls-5 {
        fill: #6a1a00;
      }
    </style>
  </defs>
  <ellipse class="cls-4" cx="201.5" cy="378.54" rx="201.5" ry="156.24"/>
  <path class="cls-3" d="m0,393.39c36,60.91,403,15.09,403,0s0,283.89-201.5,283.4S0,393.39,0,393.39Z"/>
  <path class="cls-3" d="m18,315.31c107,53,359,24,366,0s0-77,0-76.79-293,43.79-366,0"/>
  <path class="cls-2" d="m.54,220.3C-4.89,49.34,228.97-53.67,315.08,29.15c86.11,82.82,280.78,141.01,292.36,192.21,11.58,51.2-54.95,134.72-54.95,134.72-47.62-18.22-103.09,8.04-137.15-87.07,4.21,4.7,32.8,20.15-18.66.3l-212.33,3.37c-58.14-5.92-161.05,4.98-171.99-19.06"/>
  <circle class="cls-3" cx="540" cy="323.31" r="56"/>
  <g>
    <ellipse class="cls-3" cx="88.5" cy="378.31" rx="22.5" ry="22"/>
    <path class="cls-5" d="m109.5,381.31c-6.35,0-11.5-5.15-11.5-11.5,0-3.57,1.62-6.75,4.17-8.86-3.79-2.91-8.53-4.64-13.67-4.64-12.43,0-22.5,10.07-22.5,22.5s10.07,22.5,22.5,22.5c11.61,0,21.17-8.8,22.37-20.09-.45.05-.91.09-1.37.09Z"/>
  </g>
  <circle class="cls-3" cx="337.53" cy="303.01" r="11.5"/>
  <g>
    <ellipse class="cls-3" cx="299.5" cy="378.31" rx="22.5" ry="22"/>
    <path class="cls-5" d="m320.5,381.31c-6.35,0-11.5-5.15-11.5-11.5,0-3.57,1.62-6.75,4.17-8.86-3.79-2.91-8.53-4.64-13.67-4.64-12.43,0-22.5,10.07-22.5,22.5s10.07,22.5,22.5,22.5c11.61,0,21.17-8.8,22.37-20.09-.45.05-.91.09-1.37.09Z"/>
  </g>
  <path class="cls-1" d="m166,529.31c7.91,27.65,37,43.7,64,36,26.14-7.45,42.36-34.9,36-62"/>
  <ellipse class="cls-2" cx="198.5" cy="425.81" rx="32.5" ry="9.5"/>
</svg>